<svg xmlns="http://www.w3.org/2000/svg" width="149.195" height="28.808" viewBox="0 0 149.195 28.808">
  <g id="uM6wFT" transform="translate(2036.953 -1985.186)">
    <g id="Group_224" data-name="Group 224" transform="translate(-2036.953 1985.186)">
      <path id="Path_328" data-name="Path 328" d="M-2036.953,2124.72a4.465,4.465,0,0,1,2.869-3.044c1.389-.385,2.827-.59,4.243-.875.272-2.042-.783-3.149-2.4-2.452a2.211,2.211,0,0,0-1.04,1.05.883.883,0,0,1-1.106.638c-.318-.058-.64-.1-.961-.132-1.313-.15-1.481-.368-.851-1.56a4.516,4.516,0,0,1,1.466-1.743,6.591,6.591,0,0,1,6.58-.293,3.24,3.24,0,0,1,1.776,3.12c.032,1.617-.06,3.241.058,4.85a7.594,7.594,0,0,0,.732,2.531c.249.543.3.875-.2,1.225a8.184,8.184,0,0,0-.666.565c-1.293,1.123-1.385,1.112-2.452-.3-.1-.128-.2-.251-.371-.467-.279.233-.533.455-.8.664a4.862,4.862,0,0,1-4.674.8,3.565,3.565,0,0,1-2.208-2.632Zm7.286-1.754-.288-.27a15.726,15.726,0,0,0-2.575.836,1.914,1.914,0,0,0-.724,2.476,2,2,0,0,0,1.21,1.025,1.712,1.712,0,0,0,1.958-1.368A17.738,17.738,0,0,0-2029.667,2122.966Z" transform="translate(2036.953 -2110.523)" fill="#fff"/>
      <path id="Path_329" data-name="Path 329" d="M1574.216,2131.764a7.628,7.628,0,0,1-6.742.185,4.649,4.649,0,0,1-2.821-3.606,14.6,14.6,0,0,1-.2-4.327c.531-4.1,4.025-6.167,8.3-5.075,1.4.356,1.588.7,1.139,2.216-.744-.112-1.5-.263-2.258-.334-2.92-.273-4.516,1.093-4.616,4.011a12.639,12.639,0,0,0,.21,2.985,3.006,3.006,0,0,0,2.979,2.588,23.886,23.886,0,0,0,2.981-.192c.34-.022.682,0,1.023,0Z" transform="translate(-1425.021 -2113.487)" fill="#fff"/>
      <path id="Path_330" data-name="Path 330" d="M-1686.663,2120.162c2.5-2.719,4.386-2.674,6.366.2.17-.25.322-.487.488-.715a3.6,3.6,0,0,1,3.805-1.31,3.15,3.15,0,0,1,2.461,2.791,4.4,4.4,0,0,1,.063.675c0,3.041-.009,6.081.012,9.122,0,.65-.191.949-.885.932-2.89-.073-2.414.433-2.447-2.354-.025-2.07.014-4.141-.016-6.211-.02-1.362-.443-1.908-1.384-1.945a1.717,1.717,0,0,0-1.775,1.892q-.123,3.683-.032,7.373c.024.982-.257,1.292-1.248,1.26-2.069-.068-2.071-.017-2.071-2.047,0-1.941.011-3.882-.008-5.823a8.053,8.053,0,0,0-.163-1.538,1.285,1.285,0,0,0-1.261-1.137,1.338,1.338,0,0,0-1.515.949,8.429,8.429,0,0,0-.305,2.095c-.038,2.167-.043,4.335,0,6.5.015.775-.258,1.013-1.012.989-2.683-.083-2.282.4-2.3-2.316-.021-3.3.02-6.6-.022-9.9-.011-.879.244-1.2,1.156-1.176C-1686.911,2118.521-1686.91,2118.475-1686.663,2120.162Z" transform="translate(1703.341 -2113.018)" fill="#fff"/>
      <path id="Path_331" data-name="Path 331" d="M165.372,2118.471c4.113-2.426,6.946-1.856,8.178.142a16.012,16.012,0,0,1,2.4-1.157,11.337,11.337,0,0,1,3.126-.53,3.119,3.119,0,0,1,3.351,3.067c.124,1.317.073,2.651.08,3.977.01,1.878-.019,3.756.013,5.633.013.743-.229,1.106-1.007,1.007a2.38,2.38,0,0,0-.582,0c-.751.091-1.027-.2-1.014-.983.041-2.525.021-5.051.014-7.576-.008-2.812-1.04-3.591-3.784-2.871-.125.033-.248.073-.372.112-1.821.587-1.821.587-1.821,2.5,0,2.59-.054,5.182.023,7.77.036,1.231-.712,1.018-1.447,1.062-.789.046-1.178-.14-1.158-1.057.056-2.557.028-5.116.012-7.673a7.219,7.219,0,0,0-.168-1.535,1.51,1.51,0,0,0-1.651-1.345,21.305,21.305,0,0,0-3.709.923c-.234.076-.416.678-.421,1.04-.034,2.849-.063,5.7,0,8.547.025,1.072-.5,1.1-1.311,1.108-.834.008-1.3-.082-1.285-1.131.063-3.657.016-7.317.037-10.975,0-.481-.292-1.212.629-1.234.743-.018,1.647-.264,1.709.96C165.225,2118.3,165.289,2118.351,165.372,2118.471Z" transform="translate(-77.722 -2111.777)" fill="#fff"/>
      <path id="Path_332" data-name="Path 332" d="M-1202.667,2127.989a4.931,4.931,0,0,1-4.7,1.675,3.181,3.181,0,0,1-2.784-2.607c-.423-1.815.1-3.774,1.583-4.544a23.3,23.3,0,0,1,4.11-1.268c.532-.159,1.4.265,1.387-.853-.013-1.206-.485-1.9-1.5-2.031a1.883,1.883,0,0,0-2.079,1.236.836.836,0,0,1-1.1.622,4.609,4.609,0,0,0-.864-.116c-1.5.044-1.474-.524-.9-1.6a4.748,4.748,0,0,1,1.634-1.837,6.644,6.644,0,0,1,6.068-.337,3.21,3.21,0,0,1,2.075,3.116c.047,1.648-.054,3.3.07,4.944a8.5,8.5,0,0,0,.749,2.623c.211.494.317.815-.157,1.155-.209.15-.4.333-.59.5-1.451,1.268-1.451,1.268-2.653-.29C-1202.392,2128.284-1202.483,2128.194-1202.667,2127.989Zm-.318-4.8-.322-.3a15.571,15.571,0,0,0-2.515.789,2.078,2.078,0,0,0-.828,2.478,1.357,1.357,0,0,0,1.3,1.1,1.885,1.885,0,0,0,1.943-1.454A17.092,17.092,0,0,0-1202.985,2123.19Z" transform="translate(1242.276 -2110.708)" fill="#fff"/>
      <path id="Path_333" data-name="Path 333" d="M-255.5,2122.3c.74-1.527,1.723-2.326,3.278-2.293a3.123,3.123,0,0,1,3.271,2.7,8.768,8.768,0,0,1,.165,1.541c.024,2.815.012,5.63.041,8.445.007.644-.178.951-.88.932-2.995-.078-2.37.426-2.432-2.346-.049-2.166-.043-4.333-.1-6.5-.023-.87-.33-1.646-1.353-1.709a1.6,1.6,0,0,0-1.69,1.44,11.152,11.152,0,0,0-.257,2.3c-.035,1.941-.041,3.884,0,5.824.017.775-.257,1.01-1.012.99-2.676-.071-2.293.375-2.308-2.317-.019-3.333.017-6.667-.018-10-.008-.8.254-1.076,1.06-1.07C-255.789,2120.267-255.789,2120.234-255.5,2122.3Z" transform="translate(327.596 -2114.793)" fill="#fff"/>
      <path id="Path_334" data-name="Path 334" d="M-581,2127.236a28.241,28.241,0,0,1-1.326,4.115,4.745,4.745,0,0,1-4.775,2.708,4.782,4.782,0,0,1-4.418-3.121,9.275,9.275,0,0,1-.008-7.64,4.786,4.786,0,0,1,4.531-3.1,4.711,4.711,0,0,1,4.771,2.86A30.983,30.983,0,0,1-581,2127.236Zm-3.744.015c-.128-1.062-.2-2.032-.373-2.983a1.619,1.619,0,0,0-1.6-1.542,1.63,1.63,0,0,0-1.716,1.417,12.1,12.1,0,0,0,.063,5.957,1.581,1.581,0,0,0,1.619,1.4,1.664,1.664,0,0,0,1.591-1.461C-584.942,2129.1-584.867,2128.132-584.742,2127.25Z" transform="translate(648.241 -2114.971)" fill="#fff"/>
      <path id="Path_335" data-name="Path 335" d="M-1728.306,2521.549a30.007,30.007,0,0,1-19.114-7.276,1.657,1.657,0,0,1-.362-.32c-.156-.247-.27-.52-.4-.783a2.841,2.841,0,0,1,.854.1c1.822.831,3.581,1.821,5.45,2.524a40.617,40.617,0,0,0,30.213-.232c.09-.036.183-.105.271-.1.38.022.758.067,1.137.1-.16.342-.229.82-.5,1a26.455,26.455,0,0,1-3.163,1.882A31.82,31.82,0,0,1-1728.306,2521.549Z" transform="translate(1759.357 -2492.74)" fill="#fff"/>
      <path id="Path_336" data-name="Path 336" d="M765.806,2138.651a8.675,8.675,0,0,1-4.917,1.725c-2.375-.009-3.762-1.192-3.839-3.555-.1-3.135-.041-6.276-.059-9.414,0-.521.2-.792.745-.757a3.541,3.541,0,0,0,.679,0c.871-.113,1.2.2,1.176,1.129-.06,2.522-.028,5.047-.018,7.571.01,2.5,1.158,3.382,3.609,2.8l.189-.046c2.187-.574,2.353-.786,2.353-2.993,0-2.492.043-4.984-.017-7.474-.027-1.1.63-.98,1.325-.985s1.322-.082,1.306,1c-.054,3.72-.014,7.442-.028,11.163,0,.467.232,1.151-.609,1.159-.716.007-1.656.331-1.723-.922A1.713,1.713,0,0,0,765.806,2138.651Z" transform="translate(-648.882 -2121.152)" fill="#fff"/>
      <path id="Path_337" data-name="Path 337" d="M-866.327,2128.515c-1.287,0-2.407-.035-3.523.011-.792.033-1.152-.249-1.073-1.058a3.847,3.847,0,0,1,.034-.96c.1-.265.407-.637.628-.641q3.785-.068,7.571,0c.237,0,.628.416.67.683a3.111,3.111,0,0,1-.6,2.455c-1.367,1.838-2.645,3.742-4.052,5.753.612.08,1.1.123,1.589.213a13.715,13.715,0,0,1,1.791.4,2.174,2.174,0,0,1,1.493,3.084.786.786,0,0,1-.716.285,9.259,9.259,0,0,0-8.067.021c-.564.264-.761-.012-.791-.556a5.206,5.206,0,0,1,.981-3.824c1.252-1.562,2.323-3.268,3.468-4.915C-866.747,2129.212-866.594,2128.942-866.327,2128.515Z" transform="translate(916.491 -2120.39)" fill="#fff"/>
      <path id="Path_338" data-name="Path 338" d="M1115.349,2128.021c1.236.213,2.4.464,3.58.6a6.541,6.541,0,0,0,2.022-.1,1.715,1.715,0,0,0,1.452-1.608,1.544,1.544,0,0,0-1.075-1.662c-1.16-.492-2.353-.906-3.512-1.4a3.605,3.605,0,0,1-2.386-2.722,3.514,3.514,0,0,1,2.372-4.156,8.073,8.073,0,0,1,5.7.2c.8.289.623,1,.5,1.564-.029.134-.67.2-1.024.182-1.219-.062-2.435-.244-3.653-.243a1.5,1.5,0,0,0-1.548,1.349,1.548,1.548,0,0,0,1.057,1.765c1.065.468,2.157.872,3.232,1.316,2.089.863,2.9,2.01,2.73,3.852a3.893,3.893,0,0,1-3.432,3.552,9.7,9.7,0,0,1-4.889-.29C1115.131,2129.815,1115.013,2129.563,1115.349,2128.021Z" transform="translate(-993.222 -2111.452)" fill="#fff"/>
      <path id="Path_339" data-name="Path 339" d="M1425.849,2133.53c0,1.844-.03,3.689.012,5.532.018.8-.241,1.084-1.057,1.061-1.541-.043-1.543,0-1.544-1.526,0-3.559.042-7.119-.026-10.676-.021-1.118.508-1.161,1.359-1.166s1.321.115,1.279,1.146C1425.8,2129.775,1425.851,2131.653,1425.849,2133.53Z" transform="translate(-1289.346 -2121.277)" fill="#fff"/>
      <path id="Path_340" data-name="Path 340" d="M-867.94,2495.058c.437-1.264.807-2.247,1.116-3.249.807-2.615.4-3.12-2.352-2.957-1.016.061-2.029.16-3.043.242l-.116-.248a4.052,4.052,0,0,1,.647-.557,8.652,8.652,0,0,1,6.291-.781c.336.077.821.554.827.855a8.236,8.236,0,0,1-2.595,6.342A3.609,3.609,0,0,1-867.94,2495.058Z" transform="translate(917.397 -2467.819)" fill="#fff"/>
      <path id="Path_341" data-name="Path 341" d="M1417.8,1985.187a1.436,1.436,0,0,1,1.569,1.546,1.6,1.6,0,0,1-3.208-.069A1.435,1.435,0,0,1,1417.8,1985.187Z" transform="translate(-1282.543 -1985.186)" fill="#fff"/>
    </g>
  </g>
</svg>
