<?xml version="1.0" encoding="utf-8"?>
<svg xmlns="http://www.w3.org/2000/svg" width="93.352" height="22.563" viewBox="0 0 93.352 22.563">
  <g id="J4n4Ce" transform="translate(2005.12 -2.529)">
    <g id="Group_223" data-name="Group 223" transform="translate(-2005.12 2.529)">
      <path id="Path_321" data-name="Path 321" d="M-1988.061,224.088c-.251.2-.5.375-.725.575a4.521,4.521,0,0,0-1.572,3.1,5.282,5.282,0,0,0,.513,2.938,4.91,4.91,0,0,0,2.164,2.18l.152.081c.007,0,.01.013.034.043-.068.207-.136.432-.216.653a13.329,13.329,0,0,1-1.722,3.192,7.442,7.442,0,0,1-1.108,1.312,2.909,2.909,0,0,1-1.545.755,2.618,2.618,0,0,1-1.138-.142,8.792,8.792,0,0,1-.9-.335,4.379,4.379,0,0,0-3.671.05,8.355,8.355,0,0,1-1.04.372,2.179,2.179,0,0,1-2.058-.423,6.688,6.688,0,0,1-1.113-1.143,14.556,14.556,0,0,1-2.958-6.75,10.2,10.2,0,0,1,.086-4.031,6.265,6.265,0,0,1,1.706-3.131,4.874,4.874,0,0,1,3.54-1.467,4.636,4.636,0,0,1,1.62.377c.321.124.637.26.96.379.2.074.407.125.61.188a.824.824,0,0,0,.531-.012c.526-.184,1.048-.38,1.578-.55a14.085,14.085,0,0,1,1.37-.38,4.373,4.373,0,0,1,2.043.141,4.845,4.845,0,0,1,2.721,1.831C-1988.148,223.955-1988.1,224.024-1988.061,224.088Z" transform="translate(2005.12 -216.448)" fill="#fff"/>
      <path id="Path_322" data-name="Path 322" d="M-1080.612,235.618h3.393c.052.178.065,16.169.013,16.468h-3.018V241.451c-.116-.047-.148,0-.177.071-.074.173-.153.345-.227.518l-3.263,7.561c-.042.1-.088.192-.134.291h-2.111c-.151-.345-.3-.689-.452-1.035l-3.115-7.2a.965.965,0,0,0-.085-.177c-.022-.032-.072-.044-.151-.089v10.691h-2.972c-.055-.2-.082-15.8-.03-16.433.165-.053,3.06-.073,3.447-.021.243.563.491,1.133.737,1.7s.485,1.13.727,1.695.493,1.144.739,1.715l.729,1.693c.246.572.49,1.146.737,1.717s.474,1.123.72,1.658a.55.55,0,0,0,.071,0,.043.043,0,0,0,.021-.012.255.255,0,0,0,.044-.057Q-1082.793,240.689-1080.612,235.618Z" transform="translate(1115.44 -229.861)" fill="#fff"/>
      <path id="Path_323" data-name="Path 323" d="M338.668,227.017h-3.123c-.052-.208-.086-.411-.154-.6a2.182,2.182,0,0,0-1.29-1.342,3.626,3.626,0,0,0-3.052.088,1.822,1.822,0,0,0-.989,2.015,1.561,1.561,0,0,0,.789,1.078,4.26,4.26,0,0,0,1.3.5c1.038.241,2.076.478,3.109.738a5.872,5.872,0,0,1,1.752.761,3.9,3.9,0,0,1,1.807,2.7,5.64,5.64,0,0,1-.15,2.722,4.558,4.558,0,0,1-2.154,2.642,6.831,6.831,0,0,1-2.482.821,10.345,10.345,0,0,1-2.992,0,6.148,6.148,0,0,1-2.821-1.075,4.63,4.63,0,0,1-1.863-3.072c-.044-.255-.054-.515-.081-.789H329.5a.7.7,0,0,1,.047.13,2.361,2.361,0,0,0,1.531,1.867,4.218,4.218,0,0,0,1.806.3,3.932,3.932,0,0,0,1.279-.224,1.959,1.959,0,0,0,1.32-1.289,1.7,1.7,0,0,0-.864-2.166,6.288,6.288,0,0,0-1.506-.519c-1.011-.245-2.027-.471-3.03-.746a5.009,5.009,0,0,1-2.133-1.176,3.944,3.944,0,0,1-1.195-2.211,5.187,5.187,0,0,1,.189-2.739,4.539,4.539,0,0,1,2.293-2.554,8.107,8.107,0,0,1,6.466-.19,4.869,4.869,0,0,1,2.428,2.171A4.576,4.576,0,0,1,338.668,227.017Z" transform="translate(-268.848 -216.684)" fill="#fff"/>
      <path id="Path_324" data-name="Path 324" d="M-318.24,236.366h3.356v.32q0,4.971,0,9.942a4.643,4.643,0,0,0,.272,1.714,2.755,2.755,0,0,0,2.219,1.8,3.625,3.625,0,0,0,1.68-.086,2.735,2.735,0,0,0,1.872-1.77,4.054,4.054,0,0,0,.247-1.422q0-3.593,0-7.186,0-1.513,0-3.027v-.281h3.348c.006.066.018.129.018.192,0,3.626,0,7.251-.007,10.877a5.579,5.579,0,0,1-1.008,3.261,5.521,5.521,0,0,1-2.981,2.1,8.707,8.707,0,0,1-3.359.32,7.132,7.132,0,0,1-2.509-.649,5.274,5.274,0,0,1-3-3.763,6.437,6.437,0,0,1-.153-1.44q0-5.328,0-10.656Z" transform="translate(359.794 -230.606)" fill="#fff"/>
      <path id="Path_325" data-name="Path 325" d="M1266.3,228.7h-3.2c-.042-.281-.067-.557-.126-.826a2.949,2.949,0,0,0-1.337-1.982,3.078,3.078,0,0,0-4.416,1.331,5.607,5.607,0,0,0-.5,1.893,29.553,29.553,0,0,0-.031,3.614,5.5,5.5,0,0,0,.5,2.189,2.922,2.922,0,0,0,2.894,1.776,3.009,3.009,0,0,0,1.824-.57,2.877,2.877,0,0,0,1.11-1.958c.029-.185.041-.373.063-.574h3.2a.425.425,0,0,1,.024.093,5.525,5.525,0,0,1-1.349,3.9,5.7,5.7,0,0,1-3.06,1.813,7.83,7.83,0,0,1-4.739-.267,5.567,5.567,0,0,1-2.955-2.654,8.277,8.277,0,0,1-.886-2.948,14.889,14.889,0,0,1-.092-2.063c.013-.8,0-1.593.054-2.385a8.026,8.026,0,0,1,1.126-3.729,5.75,5.75,0,0,1,4.019-2.7,7.477,7.477,0,0,1,4.1.291,5.51,5.51,0,0,1,3.755,4.876c.027.252.023.507.031.761A.828.828,0,0,1,1266.3,228.7Z" transform="translate(-1172.967 -217.085)" fill="#fff"/>
      <path id="Path_326" data-name="Path 326" d="M976.54,236.389h3.33c.048.177.063,16.131.015,16.463H976.54Z" transform="translate(-903.09 -230.628)" fill="#fff"/>
      <path id="Path_327" data-name="Path 327" d="M-1648.51,7.69a4.847,4.847,0,0,1,4.313-5.161c.006.087.015.174.017.261a5.016,5.016,0,0,1-1.265,3.47,4.154,4.154,0,0,1-1.6,1.23A2.956,2.956,0,0,1-1648.51,7.69Z" transform="translate(1657.331 -2.529)" fill="#fff"/>
    </g>
  </g>
</svg>
