<svg xmlns="http://www.w3.org/2000/svg" width="92.2" height="27.634" viewBox="0 0 92.2 27.634">
  <g id="ww4PeM" transform="translate(-2542.757 -1820.071)">
    <g id="Group_225" data-name="Group 225" transform="translate(2542.757 1820.071)">
      <path id="Path_342" data-name="Path 342" d="M2556.593,1820.071a13.817,13.817,0,1,1-13.835,13.81A13.8,13.8,0,0,1,2556.593,1820.071Zm-2,7.346c-.448,0-.9-.015-1.345,0a21.925,21.925,0,0,0-4.883.718,3.312,3.312,0,0,0-.652.223,1.277,1.277,0,0,0-.581,1.612,1.318,1.318,0,0,0,1.545.757c.891-.207,1.783-.429,2.688-.558a23.979,23.979,0,0,1,6-.06,18.725,18.725,0,0,1,7.465,2.233,1.183,1.183,0,0,0,1.328-.079,1.277,1.277,0,0,0-.072-2.158,15.062,15.062,0,0,0-2.679-1.261A25.309,25.309,0,0,0,2554.591,1827.417Zm10.18,8.167a1.04,1.04,0,0,0-.551-.848,17.257,17.257,0,0,0-4.831-1.97,21.043,21.043,0,0,0-6.2-.6,18.407,18.407,0,0,0-4.434.752,1.071,1.071,0,1,0,.605,2.055,17.27,17.27,0,0,1,5.415-.668,18.813,18.813,0,0,1,5.343.908,14.781,14.781,0,0,1,3.018,1.369A1.081,1.081,0,0,0,2564.772,1835.584Zm-10.329,1.042c-.6.034-1.2.055-1.8.1a23.3,23.3,0,0,0-3.454.556.8.8,0,0,0-.592.535.813.813,0,0,0,.169.866.874.874,0,0,0,.906.247,20.356,20.356,0,0,1,6.188-.509,13.312,13.312,0,0,1,5.854,1.838.854.854,0,0,0,1.208-.27.839.839,0,0,0-.322-1.193c-.422-.245-.849-.483-1.289-.693A16.043,16.043,0,0,0,2554.443,1836.626Z" transform="translate(-2542.757 -1820.071)" fill="#fff"/>
      <path id="Path_343" data-name="Path 343" d="M4415,2000.571c-.327,0-.628-.008-.93,0-.178.006-.25-.054-.247-.237q.011-.841,0-1.682c0-.184.078-.246.25-.243.3.005.6,0,.913,0,.015-.332.014-.642.046-.948a4.555,4.555,0,0,1,.141-.8,2.508,2.508,0,0,1,2.288-1.884,6.089,6.089,0,0,1,2.253.195.23.23,0,0,1,.2.265c-.007.541,0,1.082,0,1.623,0,.248-.054.268-.3.217a7.666,7.666,0,0,0-1.185-.185.85.85,0,0,0-.945.77,6.94,6.94,0,0,0-.065.763h.251c1.083,0,2.167.005,3.25,0a.339.339,0,0,1,.376.257q1.162,3.056,2.338,6.108c.023.061.048.12.089.222.043-.108.075-.18.1-.255q1.068-3.048,2.133-6.1a.293.293,0,0,1,.329-.233c.661.009,1.321,0,1.981,0,.258,0,.315.077.226.309q-1.888,4.873-3.785,9.743a7.078,7.078,0,0,1-.59,1.138,2.656,2.656,0,0,1-2.205,1.308,4.685,4.685,0,0,1-2.523-.53.218.218,0,0,1-.111-.336c.219-.472.432-.947.648-1.42.089-.194.138-.2.338-.124a5.753,5.753,0,0,0,.919.281,1.07,1.07,0,0,0,1.2-.634.525.525,0,0,0,.034-.513q-1.455-3.45-2.888-6.91a.235.235,0,0,0-.259-.177c-.593.009-1.186,0-1.81,0v7.193c0,.288,0,.289-.286.289H4415.3c-.287,0-.3-.016-.3-.3q0-3.454,0-6.908Z" transform="translate(-4339.645 -1987.829)" fill="#fff"/>
      <path id="Path_344" data-name="Path 344" d="M3618.309,2090.892v.258q0,1.712,0,3.424c0,.254-.031.285-.284.286q-.951,0-1.9,0c-.225,0-.266-.042-.266-.266q0-5.967,0-11.934c0-.235.029-.264.262-.264q.961,0,1.922,0c.247,0,.267.022.268.276,0,.3,0,.592,0,.928a1.505,1.505,0,0,0,.132-.113,3.893,3.893,0,0,1,4.471-.982,4.406,4.406,0,0,1,2.792,3.5,5.811,5.811,0,0,1-.473,3.815,4.369,4.369,0,0,1-5.434,2.123,3.891,3.891,0,0,1-1.372-.95C3618.4,2090.971,3618.376,2090.951,3618.309,2090.892Zm2.477-.836A2.35,2.35,0,0,0,3623,2088.7a3.333,3.333,0,0,0,.175-2.52,2.442,2.442,0,0,0-4.053-1.122,3.159,3.159,0,0,0-.556,3.537A2.453,2.453,0,0,0,3620.786,2090.056Z" transform="translate(-3573.316 -2071.799)" fill="#fff"/>
      <path id="Path_345" data-name="Path 345" d="M3350.793,2019.285a8.041,8.041,0,0,1-5.136-1.96c-.213-.182-.212-.217-.031-.432q.562-.665,1.12-1.333c.174-.208.219-.212.431-.033a5.829,5.829,0,0,0,2.618,1.37,4.008,4.008,0,0,0,2-.023,2.3,2.3,0,0,0,.69-.367,1.213,1.213,0,0,0-.13-1.933,6.991,6.991,0,0,0-1.679-.626c-.8-.231-1.61-.455-2.4-.722a3.744,3.744,0,0,1-1.344-.818,3.05,3.05,0,0,1-.938-2.314,3.6,3.6,0,0,1,2.953-3.692,6.916,6.916,0,0,1,5.948,1.35.215.215,0,0,1,.046.35c-.355.492-.7.989-1.056,1.482-.129.181-.187.189-.371.056a5.94,5.94,0,0,0-2.347-1.094,3.305,3.305,0,0,0-1.74.063,1.252,1.252,0,0,0-.914,1.5.944.944,0,0,0,.546.712,16.077,16.077,0,0,0,1.565.6c.721.232,1.459.407,2.177.646a5.468,5.468,0,0,1,1.03.5,3.079,3.079,0,0,1,1.556,3.008,3.669,3.669,0,0,1-3.125,3.522C3351.779,2019.192,3351.282,2019.221,3350.793,2019.285Z" transform="translate(-3313.67 -1998.837)" fill="#fff"/>
      <path id="Path_346" data-name="Path 346" d="M3888.779,2092.571a5.072,5.072,0,0,1-4.971-3.865,5.02,5.02,0,0,1,4.1-6.13,5.128,5.128,0,0,1,5.365,2.428,5,5,0,0,1-3.4,7.425C3889.515,2092.5,3889.144,2092.525,3888.779,2092.571Zm2.7-5.023a2.984,2.984,0,0,0-.255-1.252,2.653,2.653,0,0,0-4.4-.747,2.954,2.954,0,0,0-.634,2.613,2.661,2.661,0,0,0,3.8,1.94A2.689,2.689,0,0,0,3891.482,2087.547Z" transform="translate(-3830.51 -2072.098)" fill="#fff"/>
      <path id="Path_347" data-name="Path 347" d="M4147.781,2027.482c-.337,0-.646-.006-.955,0-.174,0-.236-.073-.235-.236,0-.554,0-1.108,0-1.662,0-.188.079-.258.264-.252.3.009.593,0,.914,0,0-.079.012-.148.012-.217,0-.693,0-1.385,0-2.078,0-.229.035-.264.262-.265h1.921c.247,0,.268.022.268.276q0,1.019,0,2.038v.234c.085,0,.156.01.226.01h2.021c.235,0,.261.026.262.262q0,.812,0,1.623c0,.244-.018.26-.257.261h-2.24c0,.081-.011.151-.011.22q0,2.078,0,4.156a2.062,2.062,0,0,0,.024.3.787.787,0,0,0,.82.748,2.686,2.686,0,0,0,1.307-.253c.24-.112.33-.057.33.206,0,.515.008,1.029-.006,1.543a.358.358,0,0,1-.146.266,4.031,4.031,0,0,1-3.3.235,2.154,2.154,0,0,1-1.41-1.812,5.107,5.107,0,0,1-.074-.885c-.007-1.491,0-2.982,0-4.472Z" transform="translate(-4083.01 -2014.74)" fill="#fff"/>
      <path id="Path_348" data-name="Path 348" d="M4326.921,2092.168q0-2.256,0-4.511c0-.287.014-.3.3-.3h1.881c.235,0,.265.028.265.261q0,4.561,0,9.121c0,.191-.07.251-.257.249-.647-.009-1.294,0-1.941,0-.235,0-.253-.018-.253-.264Q4326.921,2094.444,4326.921,2092.168Z" transform="translate(-4256.192 -2076.76)" fill="#fff"/>
      <path id="Path_349" data-name="Path 349" d="M4320.905,1980.513a1.528,1.528,0,1,1-1.525,1.534A1.511,1.511,0,0,1,4320.905,1980.513Z" transform="translate(-4248.95 -1974.152)" fill="#fff"/>
      <path id="Path_350" data-name="Path 350" d="M4795.377,2088.332a1.51,1.51,0,0,1-3.019-.018,1.524,1.524,0,0,1,1.516-1.509A1.494,1.494,0,0,1,4795.377,2088.332Zm-.166-.028a1.316,1.316,0,0,0-1.341-1.338,1.355,1.355,0,1,0,1.341,1.338Z" transform="translate(-4703.178 -2076.231)" fill="#fff"/>
      <path id="Path_351" data-name="Path 351" d="M4815.809,2106.052h-.291v-1.543c.311,0,.625-.022.935.008a.4.4,0,0,1,.356.371.492.492,0,0,1-.339.579l.378.552c-.265.081-.318.064-.464-.144a1.282,1.282,0,0,1-.112-.162.339.339,0,0,0-.463-.169Zm.009-.8a2.692,2.692,0,0,0,.519-.045.292.292,0,0,0,.151-.229.267.267,0,0,0-.165-.2,2.93,2.93,0,0,0-.5-.032Z" transform="translate(-4725.419 -2093.226)" fill="#fff"/>
    </g>
  </g>
</svg>
